<?xml version="1.0" encoding="iso-8859-1"?>
<!-- Uploaded to: SVG Repo, www.svgrepo.com, Generator: SVG Repo Mixer Tools -->
<svg height="800px" width="800px" version="1.1" id="Layer_1" xmlns="http://www.w3.org/2000/svg" xmlns:xlink="http://www.w3.org/1999/xlink" 
	 viewBox="0 0 512 512" xml:space="preserve">
<path style="fill:#E6E6E6;" d="M232.186,87.405l-25.179-25.179c-2.219-2.219-4.686-4.029-7.327-5.43
	c-0.322-0.174-0.645-0.335-0.967-0.496c-11.641-5.74-26.134-3.756-35.841,5.926L9.132,215.978
	c-12.174,12.187-12.174,31.948-0.012,44.122l226.264,226.264c12.174,12.174,31.936,12.174,44.122,0l87.488-87.488l12.149-204.532
	L232.186,87.405z"/>
<path style="fill:#F95428;" d="M232.186,200.99l-0.012,112.804h-52.639c-17.567,0-31.824-14.245-31.824-31.836
	c0-8.79,3.558-16.749,9.323-22.501c5.777-5.777,13.736-9.335,22.514-9.335h17.48v-17.468c0-3.583,0.595-7.017,1.686-10.228
	c4.252-12.559,16.154-21.609,30.15-21.609C229.979,200.816,231.095,200.878,232.186,200.99z"/>
<path style="fill:#CCCCCC;" d="M232.186,87.405l-25.179-25.179c-2.219-2.219-4.686-4.029-7.327-5.43
	c-0.632,2.554-0.967,5.219-0.967,7.959v315.612c0,18.435,14.939,33.386,33.374,33.386h120.031l14.877-14.877l12.149-204.532
	L232.186,87.405z"/>
<path style="fill:#E54728;" d="M232.186,200.99l-0.012,112.804h-33.46v-91.369c4.252-12.559,16.154-21.609,30.15-21.609
	C229.979,200.816,231.095,200.878,232.186,200.99z"/>
<path style="fill:#E6E6E6;" d="M232.179,200.99V87.405V49.878c0-18.435,14.939-33.374,33.374-33.374h213.073
	c18.435,0,33.374,14.939,33.374,33.374v315.612c0,18.435-14.939,33.386-33.374,33.386H367.001H265.553
	c-18.435,0-33.374-14.951-33.374-33.386v-51.697L232.179,200.99L232.179,200.99z"/>
<g>
	<polygon style="fill:#F95428;" points="284.471,45.812 262.082,88.174 284.471,130.536 306.861,88.174 	"/>
	<polygon style="fill:#F95428;" points="459.708,284.846 437.319,327.208 459.708,369.569 482.11,327.208 	"/>
	<polygon style="fill:#F95428;" points="372.096,120.432 325.965,207.685 372.096,294.95 418.214,207.685 	"/>
	<path style="fill:#F95428;" d="M47.744,231.673c-3.099,3.099-5.021,7.389-5.021,12.125c0,9.459,7.674,17.133,17.146,17.133h9.41
		h34.279v-34.279v-9.41c0-4.736-1.922-9.025-5.021-12.125c-3.099-3.099-7.376-5.021-12.112-5.021
		c-9.472,0-17.146,7.674-17.146,17.146v9.41h-9.41C55.133,226.652,50.843,228.574,47.744,231.673z"/>
</g>
</svg>